solid OpenSCAD_Model
  facet normal 0 -1 0
    outer loop
      vertex 575 5 200
      vertex 5 5 206
      vertex 5 5 200
    endloop
  endfacet
  facet normal 0 -1 0
    outer loop
      vertex 575 5 200
      vertex 575 5 206
      vertex 5 5 206
    endloop
  endfacet
  facet normal 1 0 0
    outer loop
      vertex 575 245 200
      vertex 575 5 206
      vertex 575 5 200
    endloop
  endfacet
  facet normal 1 0 0
    outer loop
      vertex 575 245 200
      vertex 575 245 206
      vertex 575 5 206
    endloop
  endfacet
  facet normal 0 1 0
    outer loop
      vertex 5 245 200
      vertex 575 245 206
      vertex 575 245 200
    endloop
  endfacet
  facet normal 0 1 0
    outer loop
      vertex 5 245 200
      vertex 5 245 206
      vertex 575 245 206
    endloop
  endfacet
  facet normal -1 0 0
    outer loop
      vertex 5 5 200
      vertex 5 245 206
      vertex 5 245 200
    endloop
  endfacet
  facet normal -1 0 0
    outer loop
      vertex 5 5 200
      vertex 5 5 206
      vertex 5 245 206
    endloop
  endfacet
  facet normal 0 0 1
    outer loop
      vertex 5 5 206
      vertex 575 5 206
      vertex 5 245 206
    endloop
  endfacet
  facet normal 0 0 1
    outer loop
      vertex 575 5 206
      vertex 575 245 206
      vertex 5 245 206
    endloop
  endfacet
  facet normal 0 0 -1
    outer loop
      vertex 5 245 200
      vertex 575 5 200
      vertex 5 5 200
    endloop
  endfacet
  facet normal 0 0 -1
    outer loop
      vertex 5 245 200
      vertex 575 245 200
      vertex 575 5 200
    endloop
  endfacet
endsolid OpenSCAD_Model
