solid OpenSCAD_Model
  facet normal 0 -1 0
    outer loop
      vertex -26.6 19.8 -60
      vertex -16.8 19.8 -30.660254037844386
      vertex -21.8 19.8 -22
    endloop
  endfacet
  facet normal 0 -1 0
    outer loop
      vertex -26.6 19.8 -60
      vertex -21.8 19.8 -22
      vertex -26.6 19.8 0
    endloop
  endfacet
  facet normal -1 0 0
    outer loop
      vertex -26.6 19.8 -60
      vertex -26.6 25.8 0
      vertex -26.6 25.8 -60
    endloop
  endfacet
  facet normal 0 1 0
    outer loop
      vertex -26.6 25.8 -60
      vertex -21.8 25.8 -22
      vertex -16.8 25.8 -30.660254037844386
    endloop
  endfacet
  facet normal 0 1 0
    outer loop
      vertex -26.6 25.8 -60
      vertex -26.6 25.8 0
      vertex -21.8 25.8 -22
    endloop
  endfacet
  facet normal 0 -1 0
    outer loop
      vertex -26.6 19.8 -60
      vertex -6.800000000000001 19.8 -30.660254037844386
      vertex -16.8 19.8 -30.660254037844386
    endloop
  endfacet
  facet normal 0 1 0
    outer loop
      vertex -26.6 25.8 -60
      vertex -16.8 25.8 -30.660254037844386
      vertex -6.800000000000001 25.8 -30.660254037844386
    endloop
  endfacet
  facet normal 0 0 -1
    outer loop
      vertex -26.6 19.8 -60
      vertex -26.6 25.8 -60
      vertex 26.6 25.8 -60
    endloop
  endfacet
  facet normal 0 1 0
    outer loop
      vertex -26.6 25.8 -60
      vertex -6.800000000000001 25.8 -30.660254037844386
      vertex 26.6 25.8 -60
    endloop
  endfacet
  facet normal 0 -1 0
    outer loop
      vertex -26.6 19.8 -60
      vertex 1.8000000000000007 19.8 -22
      vertex -6.800000000000001 19.8 -30.660254037844386
    endloop
  endfacet
  facet normal 0 -1 0
    outer loop
      vertex -26.6 19.8 -60
      vertex 6.800000000000001 19.8 -30.660254037844386
      vertex 1.8000000000000007 19.8 -22
    endloop
  endfacet
  facet normal -1 0 0
    outer loop
      vertex -26.6 19.8 -60
      vertex -26.6 19.8 0
      vertex -26.6 25.8 0
    endloop
  endfacet
  facet normal 0 -1 0
    outer loop
      vertex -26.6 19.8 0
      vertex -21.8 19.8 -22
      vertex -16.8 19.8 -13.339745962155614
    endloop
  endfacet
  facet normal 0 1 0
    outer loop
      vertex -26.6 25.8 0
      vertex -16.8 25.8 -13.339745962155614
      vertex -21.8 25.8 -22
    endloop
  endfacet
  facet normal 0 -1 0
    outer loop
      vertex -26.6 19.8 0
      vertex -16.8 19.8 -13.339745962155614
      vertex -6.800000000000001 19.8 -13.339745962155614
    endloop
  endfacet
  facet normal 0 1 0
    outer loop
      vertex -26.6 25.8 0
      vertex -6.800000000000001 25.8 -13.339745962155614
      vertex -16.8 25.8 -13.339745962155614
    endloop
  endfacet
  facet normal 0 -1 0
    outer loop
      vertex -1.8000000000000007 19.8 -22
      vertex -6.800000000000001 19.8 -30.660254037844386
      vertex 1.8000000000000007 19.8 -22
    endloop
  endfacet
  facet normal 0 -1 0
    outer loop
      vertex -6.800000000000001 19.8 -13.339745962155614
      vertex -1.8000000000000007 19.8 -22
      vertex 6.800000000000001 19.8 -13.339745962155614
    endloop
  endfacet
  facet normal 0 1 0
    outer loop
      vertex -1.8000000000000007 25.8 -22
      vertex -6.800000000000001 25.8 -13.339745962155614
      vertex 1.8000000000000007 25.8 -22
    endloop
  endfacet
  facet normal 0 1 0
    outer loop
      vertex -26.6 25.8 0
      vertex 6.800000000000001 25.8 -13.339745962155614
      vertex -6.800000000000001 25.8 -13.339745962155614
    endloop
  endfacet
  facet normal 0 -1 0
    outer loop
      vertex -26.6 19.8 0
      vertex -6.800000000000001 19.8 -13.339745962155614
      vertex 26.6 19.8 0
    endloop
  endfacet
  facet normal 0 -1 0
    outer loop
      vertex -26.6 19.8 -60
      vertex 26.6 19.8 -60
      vertex 6.800000000000001 19.8 -30.660254037844386
    endloop
  endfacet
  facet normal 0 0 -1
    outer loop
      vertex -26.6 19.8 -60
      vertex 26.6 25.8 -60
      vertex 26.6 19.8 -60
    endloop
  endfacet
  facet normal 0 1 0
    outer loop
      vertex 26.6 25.8 -60
      vertex -6.800000000000001 25.8 -30.660254037844386
      vertex -1.8000000000000007 25.8 -22
    endloop
  endfacet
  facet normal 0 1 0
    outer loop
      vertex 26.6 25.8 -60
      vertex -1.8000000000000007 25.8 -22
      vertex 6.800000000000001 25.8 -30.660254037844386
    endloop
  endfacet
  facet normal 0 -1 0
    outer loop
      vertex 26.6 19.8 -60
      vertex 16.8 19.8 -30.660254037844386
      vertex 6.800000000000001 19.8 -30.660254037844386
    endloop
  endfacet
  facet normal 0 1 0
    outer loop
      vertex 26.6 25.8 -60
      vertex 6.800000000000001 25.8 -30.660254037844386
      vertex 16.8 25.8 -30.660254037844386
    endloop
  endfacet
  facet normal 0 -1 0
    outer loop
      vertex 26.6 19.8 -60
      vertex 21.8 19.8 -22
      vertex 16.8 19.8 -30.660254037844386
    endloop
  endfacet
  facet normal 1 0 0
    outer loop
      vertex 26.6 19.8 -60
      vertex 26.6 25.8 -60
      vertex 26.6 19.8 0
    endloop
  endfacet
  facet normal 0 -1 0
    outer loop
      vertex 26.6 19.8 -60
      vertex 26.6 19.8 0
      vertex 21.8 19.8 -22
    endloop
  endfacet
  facet normal 0 1 0
    outer loop
      vertex 26.6 25.8 -60
      vertex 16.8 25.8 -30.660254037844386
      vertex 21.8 25.8 -22
    endloop
  endfacet
  facet normal 0 1 0
    outer loop
      vertex 26.6 25.8 -60
      vertex 21.8 25.8 -22
      vertex 26.6 25.8 0
    endloop
  endfacet
  facet normal 0 -1 0
    outer loop
      vertex -1.8000000000000007 19.8 -22
      vertex 1.8000000000000007 19.8 -22
      vertex 6.800000000000001 19.8 -13.339745962155614
    endloop
  endfacet
  facet normal 0 1 0
    outer loop
      vertex -1.8000000000000007 25.8 -22
      vertex 1.8000000000000007 25.8 -22
      vertex 6.800000000000001 25.8 -30.660254037844386
    endloop
  endfacet
  facet normal 0 1 0
    outer loop
      vertex -6.800000000000001 25.8 -13.339745962155614
      vertex 6.800000000000001 25.8 -13.339745962155614
      vertex 1.8000000000000007 25.8 -22
    endloop
  endfacet
  facet normal 0 1 0
    outer loop
      vertex -26.6 25.8 0
      vertex 26.6 25.8 0
      vertex 6.800000000000001 25.8 -13.339745962155614
    endloop
  endfacet
  facet normal 0 -1 0
    outer loop
      vertex 26.6 19.8 0
      vertex -6.800000000000001 19.8 -13.339745962155614
      vertex 6.800000000000001 19.8 -13.339745962155614
    endloop
  endfacet
  facet normal 0 -1 0
    outer loop
      vertex 26.6 19.8 0
      vertex 16.8 19.8 -13.339745962155614
      vertex 21.8 19.8 -22
    endloop
  endfacet
  facet normal 1 0 0
    outer loop
      vertex 26.6 25.8 -60
      vertex 26.6 25.8 0
      vertex 26.6 19.8 0
    endloop
  endfacet
  facet normal 0 1 0
    outer loop
      vertex 26.6 25.8 0
      vertex 21.8 25.8 -22
      vertex 16.8 25.8 -13.339745962155614
    endloop
  endfacet
  facet normal 0 -1 0
    outer loop
      vertex 26.6 19.8 0
      vertex 6.800000000000001 19.8 -13.339745962155614
      vertex 16.8 19.8 -13.339745962155614
    endloop
  endfacet
  facet normal 0 1 0
    outer loop
      vertex 26.6 25.8 0
      vertex 16.8 25.8 -13.339745962155614
      vertex 6.800000000000001 25.8 -13.339745962155614
    endloop
  endfacet
  facet normal -1 0 0
    outer loop
      vertex -26.6 0 0
      vertex -26.6 0 7
      vertex -26.6 25.8 7
    endloop
  endfacet
  facet normal -1 0 0
    outer loop
      vertex -26.6 0 0
      vertex -26.6 25.8 7
      vertex -26.6 5 0
    endloop
  endfacet
  facet normal 0 -1 0
    outer loop
      vertex -26.6 0 0
      vertex 26.6 0 7
      vertex -26.6 0 7
    endloop
  endfacet
  facet normal 0 0 1
    outer loop
      vertex -26.6 0 7
      vertex 26.6 0 7
      vertex -26.6 25.8 7
    endloop
  endfacet
  facet normal 0 0 -1
    outer loop
      vertex -26.6 5 0
      vertex -26.6 19.8 0
      vertex 26.6 5 0
    endloop
  endfacet
  facet normal -1 0 0
    outer loop
      vertex -26.6 5 0
      vertex -26.6 25.8 7
      vertex -26.6 19.8 0
    endloop
  endfacet
  facet normal -1 0 0
    outer loop
      vertex -26.6 19.8 0
      vertex -26.6 25.8 7
      vertex -26.6 25.8 0
    endloop
  endfacet
  facet normal 0 1 0
    outer loop
      vertex -26.6 25.8 0
      vertex -26.6 25.8 7
      vertex 26.6 25.8 0
    endloop
  endfacet
  facet normal 0 -1 0
    outer loop
      vertex -26.6 0 0
      vertex 26.6 0 0
      vertex 26.6 0 7
    endloop
  endfacet
  facet normal 1 0 0
    outer loop
      vertex 26.6 0 0
      vertex 26.6 5 0
      vertex 26.6 0 7
    endloop
  endfacet
  facet normal 1 0 0
    outer loop
      vertex 26.6 0 7
      vertex 26.6 5 0
      vertex 26.6 19.8 0
    endloop
  endfacet
  facet normal 0 0 -1
    outer loop
      vertex -26.6 19.8 0
      vertex 26.6 19.8 0
      vertex 26.6 5 0
    endloop
  endfacet
  facet normal 0 0 1
    outer loop
      vertex -26.6 25.8 7
      vertex 26.6 0 7
      vertex 26.6 25.8 7
    endloop
  endfacet
  facet normal 0 1 0
    outer loop
      vertex -26.6 25.8 7
      vertex 26.6 25.8 7
      vertex 26.6 25.8 0
    endloop
  endfacet
  facet normal 1 0 0
    outer loop
      vertex 26.6 0 7
      vertex 26.6 19.8 0
      vertex 26.6 25.8 0
    endloop
  endfacet
  facet normal 1 0 0
    outer loop
      vertex 26.6 0 7
      vertex 26.6 25.8 0
      vertex 26.6 25.8 7
    endloop
  endfacet
  facet normal -1 0 0
    outer loop
      vertex -26.6 0 -45
      vertex -26.6 5 0
      vertex -26.6 5 -45
    endloop
  endfacet
  facet normal 0 0 -1
    outer loop
      vertex -26.6 0 -45
      vertex -26.6 5 -45
      vertex 26.6 5 -45
    endloop
  endfacet
  facet normal 0 1 0
    outer loop
      vertex -26.6 5 -45
      vertex -26.6 5 0
      vertex 26.6 5 -45
    endloop
  endfacet
  facet normal -1 0 0
    outer loop
      vertex -26.6 0 -45
      vertex -26.6 0 0
      vertex -26.6 5 0
    endloop
  endfacet
  facet normal 0 -1 0
    outer loop
      vertex -26.6 0 -45
      vertex 26.6 0 0
      vertex -26.6 0 0
    endloop
  endfacet
  facet normal 0 0 -1
    outer loop
      vertex -26.6 0 -45
      vertex 26.6 5 -45
      vertex 26.6 0 -45
    endloop
  endfacet
  facet normal 0 -1 0
    outer loop
      vertex -26.6 0 -45
      vertex 26.6 0 -45
      vertex 26.6 0 0
    endloop
  endfacet
  facet normal 1 0 0
    outer loop
      vertex 26.6 0 -45
      vertex 26.6 5 -45
      vertex 26.6 0 0
    endloop
  endfacet
  facet normal 0 1 0
    outer loop
      vertex -26.6 5 0
      vertex 26.6 5 0
      vertex 26.6 5 -45
    endloop
  endfacet
  facet normal 1 0 0
    outer loop
      vertex 26.6 5 -45
      vertex 26.6 5 0
      vertex 26.6 0 0
    endloop
  endfacet
  facet normal 0.8660254037844387 0 0.5000000000000001
    outer loop
      vertex -21.8 19.8 -22
      vertex -16.8 19.8 -30.660254037844386
      vertex -16.8 25.8 -30.660254037844386
    endloop
  endfacet
  facet normal 0 0 1
    outer loop
      vertex -6.800000000000001 25.8 -30.660254037844386
      vertex -16.8 25.8 -30.660254037844386
      vertex -16.8 19.8 -30.660254037844386
    endloop
  endfacet
  facet normal 0 0 1
    outer loop
      vertex -6.800000000000001 25.8 -30.660254037844386
      vertex -16.8 19.8 -30.660254037844386
      vertex -6.800000000000001 19.8 -30.660254037844386
    endloop
  endfacet
  facet normal -0.8660254037844387 0 0.5000000000000001
    outer loop
      vertex -6.800000000000001 25.8 -30.660254037844386
      vertex -6.800000000000001 19.8 -30.660254037844386
      vertex -1.8000000000000007 25.8 -22
    endloop
  endfacet
  facet normal 0.8660254037844387 0 -0.5000000000000001
    outer loop
      vertex -21.8 25.8 -22
      vertex -16.8 19.8 -13.339745962155614
      vertex -21.8 19.8 -22
    endloop
  endfacet
  facet normal 0.8660254037844387 0 0.5000000000000001
    outer loop
      vertex -21.8 25.8 -22
      vertex -21.8 19.8 -22
      vertex -16.8 25.8 -30.660254037844386
    endloop
  endfacet
  facet normal 0 0 -1
    outer loop
      vertex -16.8 19.8 -13.339745962155614
      vertex -16.8 25.8 -13.339745962155614
      vertex -6.800000000000001 19.8 -13.339745962155614
    endloop
  endfacet
  facet normal 0.8660254037844387 0 -0.5000000000000001
    outer loop
      vertex -16.8 25.8 -13.339745962155614
      vertex -16.8 19.8 -13.339745962155614
      vertex -21.8 25.8 -22
    endloop
  endfacet
  facet normal 0 0 -1
    outer loop
      vertex -16.8 25.8 -13.339745962155614
      vertex -6.800000000000001 25.8 -13.339745962155614
      vertex -6.800000000000001 19.8 -13.339745962155614
    endloop
  endfacet
  facet normal -0.8660254037844387 0 0.5000000000000001
    outer loop
      vertex -1.8000000000000007 19.8 -22
      vertex -1.8000000000000007 25.8 -22
      vertex -6.800000000000001 19.8 -30.660254037844386
    endloop
  endfacet
  facet normal -0.8660254037844387 0 -0.5000000000000001
    outer loop
      vertex -6.800000000000001 19.8 -13.339745962155614
      vertex -6.800000000000001 25.8 -13.339745962155614
      vertex -1.8000000000000007 19.8 -22
    endloop
  endfacet
  facet normal -0.8660254037844387 0 -0.5000000000000001
    outer loop
      vertex -1.8000000000000007 19.8 -22
      vertex -6.800000000000001 25.8 -13.339745962155614
      vertex -1.8000000000000007 25.8 -22
    endloop
  endfacet
  facet normal 0.8660254037844387 0 0.5000000000000001
    outer loop
      vertex 1.8000000000000007 19.8 -22
      vertex 6.800000000000001 19.8 -30.660254037844386
      vertex 6.800000000000001 25.8 -30.660254037844386
    endloop
  endfacet
  facet normal 0 0 1
    outer loop
      vertex 6.800000000000001 19.8 -30.660254037844386
      vertex 16.8 25.8 -30.660254037844386
      vertex 6.800000000000001 25.8 -30.660254037844386
    endloop
  endfacet
  facet normal 0 0 1
    outer loop
      vertex 6.800000000000001 19.8 -30.660254037844386
      vertex 16.8 19.8 -30.660254037844386
      vertex 16.8 25.8 -30.660254037844386
    endloop
  endfacet
  facet normal -0.8660254037844387 0 0.5000000000000001
    outer loop
      vertex 16.8 19.8 -30.660254037844386
      vertex 21.8 25.8 -22
      vertex 16.8 25.8 -30.660254037844386
    endloop
  endfacet
  facet normal 0.8660254037844387 0 -0.5000000000000001
    outer loop
      vertex 1.8000000000000007 19.8 -22
      vertex 1.8000000000000007 25.8 -22
      vertex 6.800000000000001 19.8 -13.339745962155614
    endloop
  endfacet
  facet normal 0.8660254037844387 0 0.5000000000000001
    outer loop
      vertex 1.8000000000000007 19.8 -22
      vertex 6.800000000000001 25.8 -30.660254037844386
      vertex 1.8000000000000007 25.8 -22
    endloop
  endfacet
  facet normal 0.8660254037844387 0 -0.5000000000000001
    outer loop
      vertex 6.800000000000001 19.8 -13.339745962155614
      vertex 1.8000000000000007 25.8 -22
      vertex 6.800000000000001 25.8 -13.339745962155614
    endloop
  endfacet
  facet normal 0 0 -1
    outer loop
      vertex 16.8 19.8 -13.339745962155614
      vertex 6.800000000000001 19.8 -13.339745962155614
      vertex 6.800000000000001 25.8 -13.339745962155614
    endloop
  endfacet
  facet normal -0.8660254037844387 0 -0.5000000000000001
    outer loop
      vertex 16.8 19.8 -13.339745962155614
      vertex 16.8 25.8 -13.339745962155614
      vertex 21.8 19.8 -22
    endloop
  endfacet
  facet normal 0 0 -1
    outer loop
      vertex 16.8 19.8 -13.339745962155614
      vertex 6.800000000000001 25.8 -13.339745962155614
      vertex 16.8 25.8 -13.339745962155614
    endloop
  endfacet
  facet normal -0.8660254037844387 0 0.5000000000000001
    outer loop
      vertex 21.8 19.8 -22
      vertex 21.8 25.8 -22
      vertex 16.8 19.8 -30.660254037844386
    endloop
  endfacet
  facet normal -0.8660254037844387 0 -0.5000000000000001
    outer loop
      vertex 21.8 19.8 -22
      vertex 16.8 25.8 -13.339745962155614
      vertex 21.8 25.8 -22
    endloop
  endfacet
endsolid OpenSCAD_Model
